<svg xmlns="http://www.w3.org/2000/svg" width="85.29" height="85.29" viewBox="0 0 85.29 85.29"><defs><style>.cls-1{fill:#fff;}</style></defs><title>Asset 4</title><g id="Layer_2" data-name="Layer 2"><g id="Layer_1-2" data-name="Layer 1"><path class="cls-1" d="M42.64,0A42.64,42.64,0,1,0,85.29,42.64,42.69,42.69,0,0,0,42.64,0Zm0,82.29A39.64,39.64,0,1,1,82.29,42.64,39.69,39.69,0,0,1,42.64,82.29Z"/><path class="cls-1" d="M66.19,13.58h0A37.51,37.51,0,0,0,62.61,11l0,0-.08,0c-.38-.24-.76-.47-1.15-.69l-.15-.09L60.93,10l-1-.54-.17-.09-.33-.16,0,0-.94-.46-.2-.1-.34-.15-.06,0-1-.43L56.68,8l-.33-.13-.06,0-.92-.36h0L55,7.34l-.33-.11-.33-.11h0l-1.21-.37-.16,0-.32-.09-.32-.09-.14,0-.77-.19-.26-.06-.31-.08-.37-.08h0l-.76-.15h0l-.39-.08-.38-.06-.2,0L48,5.62l-.19,0-.43-.06-.43,0-.71-.08h0l-.41,0-.48,0-.24,0-.65,0H41.62l-1.23,0h0l-.26,0q-.92.06-1.82.16l-.32,0-.45.06-.45.06h0l-.59.1h0L36,5.84l-.45.08h0l-1,.2-.16,0-.53.12-.45.1h0l-.74.2-.52.15-.48.14h0l-1,.33-.22.07-.59.2h0l-.6.23h0L28.63,8h0l-.68.28h0l-.64.29-.51.23-.95.46h0l-.33.17q-.8.41-1.58.86l-.29.17h0q-.84.49-1.64,1l0,0h0l-.94.65h0a37.57,37.57,0,0,0-3.18,2.52h0a37.63,37.63,0,0,0-3.76,3.85h0q-1,1.17-1.88,2.42l-.08.11q-.89,1.25-1.68,2.58h0A37.2,37.2,0,0,0,7.1,31h0c-.25.76-.49,1.54-.69,2.32h0c0,.1,0,.19-.07.29-.13.54-.26,1.08-.37,1.62H6c0,.09,0,.18,0,.27-.1.49-.19,1-.26,1.48h0c0,.08,0,.16,0,.24-.1.67-.17,1.34-.24,2h0v.1q-.09,1-.12,2h0q0,.34,0,.67c0,.19,0,.38,0,.57,0,0,0,0,0,.05h0c0,.77,0,1.53.08,2.29,0,.06,0,.11,0,.17s0,.21,0,.31c0,.48.07,1,.13,1.43v0l.06.49c0,.08,0,.16,0,.23q.09.66.2,1.31V49c0,.16.05.31.08.47l0,.19c.08.45.18.89.28,1.33,0,.16.06.31.1.47l.06.2c.13.52.27,1,.42,1.54v0l0,.07a37.11,37.11,0,0,0,1.54,4.23l.06.14.1.21q.32.72.67,1.42l.1.21.14.26q.35.68.73,1.34l.05.1.17.3,0,0q.42.72.88,1.42l.1.16.05.07a37.55,37.55,0,0,0,3.87,4.91l0,.05.09.09q.62.65,1.26,1.28l.09.09.12.11q.65.62,1.34,1.21l0,0,0,0c.56.48,1.13.94,1.71,1.39h0a37.24,37.24,0,0,0,22.64,7.64c.84,0,1.67,0,2.5-.09l.28-.95h0c-.68-.49-1.65-.71-1.74-1.78h0c-.74-.44-1.71-.64-1.77-1.76l-.62-.62.22.05c.5-.6.37-1.52,1-2.05q0-.76,0-1.51l-.66,0L43,69.45A3,3,0,0,1,45.43,68c.29,0,.56-.08.83-.11a5.41,5.41,0,0,0,.91-1.87l.1-.6h0a1.27,1.27,0,0,1-.08-.54h0c-.69-.46-.33-2-1.71-1.72h0c-.45.72-1.12.51-1.77.43-.36-.57-1.31-.74-1.15-1.67a3.64,3.64,0,0,0,2.9.07h0l2.34.48c1-2,2.66-2.48,4.69-2.27l0,.22h0a1.26,1.26,0,0,1,1.23.2,4.21,4.21,0,0,1,2.38.91h0l2.26-.74c.23.52.75.5,1.19.63h0l1.18-.09a2.61,2.61,0,0,1,.05.35,2.74,2.74,0,0,1,1.11-.34,2.1,2.1,0,0,1,1.29.42,1.76,1.76,0,0,1,.3.63c.38,0,.54.41.74.74q0,.25,0,.51h0l2.34-.07a1.11,1.11,0,0,1,1.25,0,1.41,1.41,0,0,1,.23.83q-.58.69-1.17,1.35a3.14,3.14,0,0,1,.87-.25,2.58,2.58,0,0,1,.4-.64,1,1,0,0,1,.79-.14A2.76,2.76,0,0,1,69.8,67c-.84.85.46.49.53.83a37.4,37.4,0,0,0-4.14-54.22ZM46.7,51.82c-.14-.46-.07-.71.47-.45.74.37,1.66.47,2.16,1.58C48.12,53.08,47,53.65,46.7,51.82Zm.51-3.45c.57.15,1.63-.17,1.54.7s-1.25.88-2.06,1C46.74,49.46,46.53,48.78,47.21,48.37Zm5.29,6.56c-.55-.23-1.77,0-1.42-.92.49-1.33,1.64-1,2.62-.33C54,54.75,53.12,54.72,52.5,54.93Zm12.3-33.61c.37,1.41,1.66,2.8.12,4.26a2.51,2.51,0,0,1-2.06-.42,68.64,68.64,0,0,1-5.23-4.93,4.42,4.42,0,0,1-1.51-2.79,1.06,1.06,0,0,1-.3,0A7.86,7.86,0,0,1,53,16.11a.76.76,0,0,1-.88,0,1.37,1.37,0,0,1-.78.71,17,17,0,0,1,3.53,1.87,1.74,1.74,0,0,1,.37.71,2.23,2.23,0,0,1-1.62,2.73.83.83,0,0,1-.53,0c.07.32.41.42.57.67.44.51,1,.39,1.51.22a10.23,10.23,0,0,1,5.67,3.88,20.5,20.5,0,0,0,2,2.41,2,2,0,0,1,.52,1.56c-.77,1.43-1.89,1-3,.49s-1.84-1-2.79-1.46c-.22,0-.59-.1-.55.24s.51.37.82.51c2.56,1.35.43,2.71-.42,2.66-2.72-.16-4.14,1.6-5.83,3.08a12.22,12.22,0,0,0-2.06,1c-.77.73-.41,1.63-.36,2.48a1.91,1.91,0,0,1-.1.79c-1.15,1.41-3.19,2-3.81,3.89a3.6,3.6,0,0,0-.19.49c.16.79-.06,1.75.9,2.2.16.94-.2,1.35-1.16,1.15l-.62-1.69s0,0,0,0c-1.87-2.09-4.52-2-7-2.24S32.88,46.79,33,49.65A4.73,4.73,0,0,0,34,52.08c.73,1,1.48.8,2.24,0a3.4,3.4,0,0,1,1.6-1.18,1.57,1.57,0,0,1,1.49.57,2.07,2.07,0,0,1,.16,2.32c-.19.6-.83,1.22.1,1.76a5.23,5.23,0,0,1,2,1c0,.07.07.14.1.21.69.32.65.81.46,1.33.06.29.12.59.19.89a2.64,2.64,0,0,1-.93,2.37c-2,0-2.59-2.12-4.22-2.81-2.48-1.05-4.66-2.69-7.29-3.54a5.28,5.28,0,0,1-3.3-4.48c-.19-1.17-.25-2.33-1.24-3.15a1.92,1.92,0,0,1-.21-.4.53.53,0,0,1-.29-.38h0l-.58-.62h.58l.08-.11c.08-.57.59-1.24-.47-1.52a1.86,1.86,0,0,1-.86-1.22,14.27,14.27,0,0,1-.54-2.33,24,24,0,0,0,.09-2.78,5.42,5.42,0,0,1,.07-2,20.6,20.6,0,0,0,.45-2.83c2-3.6,4.25-7.07,6-10.84.23-.51.76-.88.77-1.47-.5.94-1.11,1.24-1.88.66a40.2,40.2,0,0,1,9.92-6.26l.09,0c.8.91,1.66,1.52,3,1a4.86,4.86,0,0,1,3.08-.16c.49.13,1,.28,1.46.42.69,0,1.11.84,1.88.63a4.88,4.88,0,0,1,1-.43,1.7,1.7,0,0,1,.61-1.36h0l.61-.64,1.06,0h0l1.32-.44h0l2.92,0h0l2.94.11q0,.22,0,.45l3.68-.07L65.47,16c.26,1.21,1.25,2.47-.49,3.48C64.4,19.87,64.46,20.68,64.81,21.33Z"/></g></g></svg>