<svg xmlns="http://www.w3.org/2000/svg" xmlns:xlink="http://www.w3.org/1999/xlink" width="87.99" height="88.03" viewBox="0 0 87.99 88.03"><defs><style>.cls-1{fill:none;}.cls-2{fill:#5ba2ee;}.cls-3{fill:#e9c6af;}.cls-4{clip-path:url(#clip-path);}.cls-5{fill:#fff;}.cls-6{fill:#fefefe;}.cls-7{fill:#fdfdfd;}.cls-8{fill:#fcfcfc;}.cls-9{fill:#fbfbfb;}.cls-10{fill:#fafafa;}.cls-11{fill:#f9f9f9;}.cls-12{fill:#f8f8f8;}.cls-13{fill:#f7f7f7;}.cls-14{fill:#f6f6f6;}.cls-15{fill:#f5f5f5;}.cls-16{fill:#f4f4f4;}.cls-17{fill:#f3f3f3;}.cls-18{fill:#f2f2f2;}.cls-19{fill:#f1f1f1;}.cls-20{fill:#f0f0f0;}.cls-21{fill:#efefef;}.cls-22{fill:#eee;}.cls-23{fill:#ededed;}.cls-24{fill:#ececec;}.cls-25{fill:#ebebeb;}.cls-26{fill:#eaeaea;}.cls-27{fill:#e9e9e9;}.cls-28{fill:#e8e8e8;}.cls-29{fill:#e7e7e7;}.cls-30{fill:#e6e6e6;}.cls-31{fill:#e5e5e5;}.cls-32{fill:#e4e4e4;}.cls-33{fill:#e3e3e3;}.cls-34{fill:#e2e2e2;}.cls-35{fill:#e1e1e1;}.cls-36{fill:#e0e0e0;}.cls-37{fill:#dfdfdf;}.cls-38{fill:#dedede;}.cls-39{fill:#ddd;}.cls-40{fill:#dcdcdc;}.cls-41{fill:#dbdbdb;}.cls-42{fill:#dadada;}.cls-43{fill:#dad9d9;}.cls-44{fill:#d9d8d8;}.cls-45{fill:#d8d7d7;}.cls-46{fill:#d7d6d6;}.cls-47{fill:#d6d5d5;}.cls-48{fill:#d5d4d4;}.cls-49{fill:#d4d3d3;}.cls-50{fill:#d3d2d2;}.cls-51{fill:#d2d1d1;}.cls-52{fill:#d1d0d0;}.cls-53{fill:#d0cfcf;}.cls-54{fill:#cfcece;}.cls-55{fill:#cecdcd;}.cls-56{fill:#cdcccc;}.cls-57{fill:#cccbcb;}.cls-58{fill:#cbcaca;}.cls-59{fill:#cac9c9;}.cls-60{fill:#c9c8c8;}.cls-61{fill:#c8c7c7;}.cls-62{fill:#c7c6c6;}.cls-63{fill:#c6c5c5;}.cls-64{fill:#c5c4c4;}.cls-65{fill:#c4c3c3;}.cls-66{fill:#c3c2c2;}.cls-67{fill:#c2c1c1;}.cls-68{fill:#c1c0c0;}.cls-69{fill:#c0bfbf;}.cls-70{fill:#bfbebe;}.cls-71{fill:#bebdbd;}.cls-72{fill:#bdbcbc;}.cls-73{fill:#bcbbbb;}.cls-74{fill:#bbbaba;}.cls-75{fill:#bab9b9;}.cls-76{fill:#b9b8b8;}.cls-77{fill:#b8b7b7;}.cls-78{fill:#b7b6b6;}.cls-79{fill:#b6b5b5;}.cls-80{fill:#b5b4b4;}.cls-81{fill:#b4b3b3;}.cls-82{fill:#b3b2b2;}.cls-83{fill:#b2b1b1;}.cls-84{fill:#b1b0b0;}.cls-85{fill:#b0afaf;}.cls-86{fill:#afaeae;}.cls-87{fill:#aeadad;}.cls-88{fill:#adacac;}.cls-89{fill:#acabab;}.cls-90{fill:#abaaaa;}.cls-91{fill:#aaa9a9;}.cls-92{fill:#a9a8a8;}.cls-93{fill:#a8a7a7;}.cls-94{fill:#a7a6a6;}.cls-95{fill:#a6a5a5;}.cls-96{fill:#a5a4a4;}.cls-97{fill:#a4a3a3;}.cls-98{fill:#a3a2a2;}.cls-99{fill:#a2a1a1;}.cls-100{fill:#a1a0a0;}.cls-101{fill:#a09f9f;}.cls-102{fill:#9f9e9e;}.cls-103{fill:#9e9d9d;}.cls-104{fill:#9d9c9c;}.cls-105{fill:#9c9b9b;}.cls-106{fill:#9b9a9a;}.cls-107{fill:#9a9999;}.cls-108{fill:#999898;}.cls-109{fill:#989797;}.cls-110{fill:#979696;}.cls-111{fill:#969595;}.cls-112{fill:#959494;}.cls-113{fill:#949393;}.cls-114{fill:#939292;}.cls-115{fill:#929191;}.cls-116{fill:#919090;}.cls-117{fill:#918e8f;}.cls-118{fill:#908d8e;}.cls-119{fill:#8f8c8d;}.cls-120{fill:#8e8b8c;}.cls-121{fill:#8d8a8b;}.cls-122{fill:#8c898a;}.cls-123{fill:#8b8889;}.cls-124{fill:#8a8788;}.cls-125{fill:#898687;}.cls-126{fill:#888586;}.cls-127{fill:#878485;}.cls-128{fill:#868384;}.cls-129{fill:#858283;}.cls-130{fill:#848182;}.cls-131{fill:#838081;}.cls-132{fill:#827f80;}.cls-133{fill:#817e7f;}.cls-134{fill:#807d7e;}.cls-135{fill:#7f7c7d;}.cls-136{fill:#7e7b7c;}.cls-137{fill:#7d7a7b;}.cls-138{fill:#7c797a;}.cls-139{fill:#7b7879;}.cls-140{fill:#7a7778;}.cls-141{fill:#797677;}.cls-142{fill:#787576;}.cls-143{fill:#777475;}.cls-144{fill:#767374;}.cls-145{fill:#757273;}.cls-146{fill:#747172;}.cls-147{fill:#737071;}.cls-148{fill:#726f70;}.cls-149{fill:#716e6f;}.cls-150{fill:#706d6e;}.cls-151{fill:#6f6c6d;}.cls-152{fill:#6e6b6c;}.cls-153{fill:#6d6a6b;}.cls-154{fill:#6c696a;}.cls-155{fill:#6b6869;}.cls-156{fill:#6a6768;}.cls-157{fill:#696667;}.cls-158{fill:#686566;}.cls-159{fill:#676465;}.cls-160{fill:#666364;}.cls-161{fill:#656263;}.cls-162{fill:#646162;}.cls-163{fill:#636061;}.cls-164{fill:#625f60;}.cls-165{fill:#615e5f;}.cls-166{fill:#605d5e;}.cls-167{fill:#5f5c5d;}.cls-168{fill:#5e5b5c;}.cls-169{fill:#5d5a5b;}.cls-170{fill:#5c595a;}.cls-171{fill:#5b5859;}.cls-172{fill:#5a5758;}.cls-173{fill:#595657;}.cls-174{fill:#585556;}.cls-175{fill:#575455;}.cls-176{fill:#565354;}.cls-177{fill:#555253;}.cls-178{fill:#545152;}.cls-179{fill:#535051;}.cls-180{fill:#524f50;}.cls-181{fill:#514e4f;}.cls-182{fill:#504d4e;}.cls-183{fill:#4f4c4d;}.cls-184{fill:#4e4b4c;}.cls-185{fill:#4d4a4b;}.cls-186{fill:#4c494a;}.cls-187{fill:#4b4849;}.cls-188{fill:#4a4748;}.cls-189{fill:#494647;}.cls-190{fill:#484546;}.cls-191{fill:#484445;}.cls-192{fill:#474344;}.cls-193{fill:#464243;}.cls-194{fill:#454142;}.cls-195{fill:#444041;}.cls-196{fill:#433f40;}.cls-197{fill:#423e3f;}.cls-198{fill:#413d3e;}.cls-199{fill:#403c3d;}.cls-200{fill:#3f3b3c;}.cls-201{fill:#3e3a3b;}.cls-202{fill:#3d393a;}.cls-203{fill:#3c3839;}.cls-204{fill:#3b3738;}.cls-205{fill:#3a3637;}.cls-206{fill:#393536;}.cls-207{fill:#383435;}.cls-208{fill:#373334;}.cls-209{fill:#363233;}.cls-210{fill:#353132;}.cls-211{fill:#343031;}.cls-212{fill:#332f30;}.cls-213{fill:#322e2f;}.cls-214{fill:#312d2e;}.cls-215{fill:#302c2d;}.cls-216{fill:#2f2b2c;}.cls-217{fill:#2e2a2b;}.cls-218{fill:#2d292a;}.cls-219{fill:#2c2829;}.cls-220{fill:#2b2728;}.cls-221{fill:#2a2627;}.cls-222{fill:#292526;}.cls-223{fill:#282425;}.cls-224{fill:#272324;}.cls-225{fill:#262223;}.cls-226{fill:#252122;}.cls-227{fill:#242021;}.cls-228{fill:#231f20;}</style><clipPath id="clip-path"><path class="cls-1" d="M57.39,14.65a40.18,40.18,0,0,1,11.5,1.68A37.4,37.4,0,1,0,22.7,75.16,40.19,40.19,0,0,1,57.39,14.65Z"/></clipPath></defs><title>Asset 3</title><g id="Layer_2" data-name="Layer 2"><g id="Layer_1-2" data-name="Layer 1"><path d="M45.34,88A42.64,42.64,0,1,1,88,45.39,42.69,42.69,0,0,1,45.34,88Zm0-82.29A39.64,39.64,0,1,0,85,45.39,39.69,39.69,0,0,0,45.34,5.75Z"/><circle class="cls-2" cx="45.34" cy="45.39" r="37.41"/><path class="cls-3" d="M53.79,56.76c-.35.94.87.69,1.42.92.61-.21,1.47-.19,1.2-1.25C55.43,55.81,54.28,55.43,53.79,56.76Z"/><path class="cls-3" d="M73,70.55c-.07-.34-1.37,0-.53-.83a2.76,2.76,0,0,0-.82-2.24,1,1,0,0,0-.79.14,2.58,2.58,0,0,0-.4.64,3.14,3.14,0,0,0-.87.25q.59-.66,1.17-1.35a1.41,1.41,0,0,0-.23-.83,1.11,1.11,0,0,0-1.25,0L67,66.42h0q0-.26,0-.51c-.21-.33-.36-.76-.74-.74a1.76,1.76,0,0,0-.3-.63,2.1,2.1,0,0,0-1.29-.42,2.74,2.74,0,0,0-1.11.34,2.61,2.61,0,0,0-.05-.35l-1.18.09h0c-.44-.13-1-.11-1.19-.63l-2.26.74h0a4.21,4.21,0,0,0-2.38-.91,1.26,1.26,0,0,0-1.23-.2h0l0-.22c-2-.21-3.71.31-4.69,2.27l-2.34-.48h0a3.64,3.64,0,0,1-2.9-.07c-.16.93.79,1.1,1.15,1.67.64.08,1.32.29,1.77-.43h0c1.38-.23,1,1.27,1.71,1.72h0a1.27,1.27,0,0,0,.08.54h0l-.1.6A5.41,5.41,0,0,1,49,70.67c-.28,0-.54.09-.83.11a3,3,0,0,0-2.39,1.42l-1.19,1.86.66,0q0,.76,0,1.51c-.64.53-.51,1.46-1,2.05L44,77.6l.62.62c.06,1.12,1,1.32,1.77,1.76h0c.09,1.07,1.06,1.29,1.74,1.78h0l-.28.95A37.31,37.31,0,0,0,73,70.55Z"/><path class="cls-3" d="M45,61.83c-.06-.3-.12-.59-.19-.89.19-.52.24-1-.46-1.33,0-.07-.06-.14-.1-.21a5.23,5.23,0,0,0-2-1c-.93-.54-.28-1.16-.1-1.76A2.07,2.07,0,0,0,42,54.27a1.57,1.57,0,0,0-1.49-.57,3.4,3.4,0,0,0-1.6,1.18c-.76.76-1.51,1-2.24,0a4.73,4.73,0,0,1-.93-2.43c-.17-2.86,1.89-5.52,4.25-5.24s5.09.15,7,2.24c0,0,0,0,0,0l.62,1.69c1,.2,1.32-.21,1.16-1.15-1-.45-.74-1.41-.9-2.2a3.6,3.6,0,0,1,.19-.49c.62-1.94,2.66-2.48,3.81-3.89a1.91,1.91,0,0,0,.1-.79c0-.85-.41-1.75.36-2.48a12.22,12.22,0,0,1,2.06-1c1.69-1.48,3.11-3.24,5.83-3.08.84,0,3-1.32.42-2.66-.31-.14-.77-.14-.82-.51s.33-.23.55-.24c1,.42,1.85,1,2.79,1.46s2.18.94,3-.49a2,2,0,0,0-.52-1.56,20.5,20.5,0,0,1-2-2.41,10.23,10.23,0,0,0-5.67-3.88c-.54.17-1.08.29-1.51-.22-.16-.24-.5-.34-.57-.67a.83.83,0,0,0,.53,0,2.23,2.23,0,0,0,1.62-2.73,1.74,1.74,0,0,0-.37-.71A17,17,0,0,0,54,19.58a1.37,1.37,0,0,0,.78-.71.76.76,0,0,0,.88,0,7.86,7.86,0,0,0,2.85,1.35,1.06,1.06,0,0,0,.3,0A4.42,4.42,0,0,0,60.34,23a68.64,68.64,0,0,0,5.23,4.93,2.51,2.51,0,0,0,2.06.42c1.54-1.47.25-2.85-.12-4.26-.35-.65-.41-1.46.18-1.8,1.74-1,.74-2.27.49-3.48l-3.39-1.23-3.68.07q0-.22,0-.45l-2.94-.11h0l-2.92,0h0l-1.32.44h0l-1.06,0-.61.64h0a1.7,1.7,0,0,0-.61,1.36,4.88,4.88,0,0,0-1,.43c-.77.21-1.19-.6-1.88-.63-.49-.14-1-.29-1.46-.42a4.86,4.86,0,0,0-3.08.16c-1.31.56-2.17,0-3-1a1.49,1.49,0,0,0-.78-.16,10.23,10.23,0,0,0-2.29.93c-1.33,1.73-3.69,1.66-5.23,3h0l-1.25.45-1.26,1.12c1.16,1.57,2,1.45,2.68.2,0,.59-.54,1-.77,1.47-1.7,3.77-4,7.24-6,10.84a20.6,20.6,0,0,1-.45,2.83,5.42,5.42,0,0,0-.07,2,24,24,0,0,1-.09,2.78A14.27,14.27,0,0,0,26.32,46a1.86,1.86,0,0,0,.86,1.22c1.06.28.56,1,.47,1.52l-.08.11H27l.58.62h0a.53.53,0,0,0,.29.38,1.92,1.92,0,0,0,.21.4c1,.83,1.06,2,1.24,3.15a5.28,5.28,0,0,0,3.3,4.48c2.63.86,4.81,2.49,7.29,3.54,1.63.7,2.2,2.83,4.22,2.81A2.64,2.64,0,0,0,45,61.83Z"/><path class="cls-3" d="M49.87,54.13c-.55-.26-.61,0-.47.45.26,1.82,1.42,1.25,2.63,1.13C51.53,54.59,50.61,54.5,49.87,54.13Z"/><path class="cls-3" d="M51.45,51.82c.1-.87-1-.55-1.54-.7-.68.4-.47,1.08-.52,1.68C50.2,52.7,51.34,52.83,51.45,51.82Z"/><g class="cls-4"><rect class="cls-5" x="7.94" y="7.98" width="60.95" height="67.18"/><path class="cls-5" d="M69.89,50.07V76.16H8.19v3.39a52.61,52.61,0,0,1-4.86-9H6.94v-41H3.33A52.91,52.91,0,0,1,31.39,1.49V7h38.5Z"/><path class="cls-6" d="M69.89,50.07V76.16H8.24v3.35a52.54,52.54,0,0,1-4.86-8.95H6.94v-41H3.39a52.85,52.85,0,0,1,28-28V7H69.89Z"/><path class="cls-7" d="M69.89,50.07V76.16H8.3v3.32a52.47,52.47,0,0,1-4.85-8.93H6.94V29.6H3.45a52.78,52.78,0,0,1,28-28V7H69.89Z"/><path class="cls-8" d="M69.89,50.07V76.16H8.36v3.28a52.41,52.41,0,0,1-4.84-8.92H6.94V29.63H3.51a52.71,52.71,0,0,1,28-28V7H69.89Z"/><path class="cls-9" d="M69.89,50.07V76.16H8.41V79.4a52.34,52.34,0,0,1-4.84-8.91H6.94V29.65H3.58A52.64,52.64,0,0,1,31.49,1.74V7H69.89Z"/><path class="cls-10" d="M69.89,50.07V76.16H8.47v3.2a52.27,52.27,0,0,1-4.83-8.9h3.3V29.68H3.64A52.57,52.57,0,0,1,31.52,1.8V7H69.89Z"/><path class="cls-11" d="M69.89,50.07V76.16H8.53v3.16A52.2,52.2,0,0,1,3.7,70.44H6.94V29.71H3.7A52.5,52.5,0,0,1,31.55,1.86V7H69.89Z"/><path class="cls-12" d="M69.89,50.07V76.16H8.58v3.13a52.13,52.13,0,0,1-4.82-8.88H6.94V29.73H3.77A52.44,52.44,0,0,1,31.57,1.93V7H69.89Z"/><path class="cls-13" d="M69.89,50.07V76.16H8.64v3.09a52.07,52.07,0,0,1-4.81-8.86H6.94V29.76H3.83A52.37,52.37,0,0,1,31.6,2V7H69.89Z"/><path class="cls-14" d="M69.89,50.07V76.16H8.7v3.05a52,52,0,0,1-4.81-8.85h3V29.79h-3A52.3,52.3,0,0,1,31.63,2.05V7H69.89Z"/><path class="cls-15" d="M69.89,50.07V76.16H8.75v3A51.93,51.93,0,0,1,4,70.33h3V29.81H4a52.23,52.23,0,0,1,27.7-27.7V7H69.89Z"/><path class="cls-16" d="M69.89,50.07V76.16H8.81v3A51.86,51.86,0,0,1,4,70.31H6.94V29.84H4A52.16,52.16,0,0,1,31.68,2.18V7H69.89Z"/><path class="cls-17" d="M69.89,50.07V76.16h-61V79.1a51.79,51.79,0,0,1-4.79-8.82H6.94V50.07H0A52,52,0,0,1,31.71,2.24V7H69.89Z"/><path class="cls-18" d="M69.89,50.07V76.16h-61v2.9a51.73,51.73,0,0,1-4.78-8.81H6.94V50.07H.07A51.9,51.9,0,0,1,31.73,2.3V7H69.89Z"/><path class="cls-19" d="M69.89,50.07V76.16H9V79A51.66,51.66,0,0,1,4.2,70.23H6.94V50.07H.14A51.83,51.83,0,0,1,31.76,2.37V7H69.89Z"/><path class="cls-20" d="M69.89,50.07V76.16H9V79A51.59,51.59,0,0,1,4.27,70.2H6.94V50.07H.2A51.77,51.77,0,0,1,31.78,2.43V7h38.1Z"/><path class="cls-21" d="M69.89,50.07V76.16H9.09v2.78a51.52,51.52,0,0,1-4.76-8.77H6.94V50.07H.27A51.7,51.7,0,0,1,31.81,2.49V7H69.89Z"/><path class="cls-22" d="M69.89,50.07V76.16H9.15v2.75a51.46,51.46,0,0,1-4.75-8.76H6.94V50.07H.34A51.63,51.63,0,0,1,31.84,2.55V7h38Z"/><path class="cls-23" d="M69.89,50.07V76.16H9.2v2.71a51.39,51.39,0,0,1-4.75-8.75H6.94v-20H.41A51.56,51.56,0,0,1,31.86,2.62V7h38Z"/><path class="cls-24" d="M69.89,50.07V76.16H9.26v2.67a51.32,51.32,0,0,1-4.74-8.74H6.94v-20H.48A51.49,51.49,0,0,1,31.89,2.68V7h38Z"/><path class="cls-25" d="M69.89,50.07V76.16H9.32v2.63a51.25,51.25,0,0,1-4.74-8.73H6.94v-20H.54A51.42,51.42,0,0,1,31.92,2.74V7h38Z"/><path class="cls-26" d="M69.89,50.07V76.16H9.37v2.59A51.18,51.18,0,0,1,4.64,70H6.94v-20H.61A51.36,51.36,0,0,1,31.94,2.81V7H69.89Z"/><path class="cls-27" d="M69.89,50.07V76.16H9.43v2.56A51.12,51.12,0,0,1,4.71,70H6.94V50.07H.68A51.29,51.29,0,0,1,32,2.87V7H69.89Z"/><path class="cls-28" d="M69.89,50.07V76.16H9.49v2.52A51,51,0,0,1,4.77,70H6.94V50.07H.75A51.22,51.22,0,0,1,32,2.93V7H69.89Z"/><path class="cls-29" d="M69.89,50.07V76.16H9.54v2.48A51,51,0,0,1,4.83,70h2.1V50.07H.82A51.15,51.15,0,0,1,32,3V7H69.89Z"/><path class="cls-30" d="M69.89,50.07V76.16H9.6V78.6a50.91,50.91,0,0,1-4.7-8.67h2V50.07H.89A51.08,51.08,0,0,1,32,3.06V7H69.89Z"/><path class="cls-31" d="M69.89,50.07V76.16H9.66v2.4A50.84,50.84,0,0,1,5,69.91h2V50.07H1a51,51,0,0,1,31.12-47V7H69.89Z"/><path class="cls-32" d="M69.89,50.07V76.16H9.71v2.36A50.78,50.78,0,0,1,5,69.88H6.94V50.07H1A50.95,50.95,0,0,1,32.1,3.18V7H69.89Z"/><path class="cls-33" d="M69.89,50.07V76.16H9.77v2.33a50.71,50.71,0,0,1-4.69-8.63H6.94V50.07H1.09a50.88,50.88,0,0,1,31-46.83V7H69.89Z"/><path class="cls-34" d="M69.89,50.07V76.16H9.83v2.29a50.64,50.64,0,0,1-4.68-8.62H6.94V50.07H1.16a50.81,50.81,0,0,1,31-46.77V7H69.89Z"/><path class="cls-35" d="M69.89,50.07V76.16h-60v2.25A50.57,50.57,0,0,1,5.21,69.8H6.94V50.07H1.23a50.74,50.74,0,0,1,31-46.7V7h37.7Z"/><path class="cls-36" d="M69.89,50.07V76.16H9.94v2.21a50.5,50.5,0,0,1-4.67-8.6H6.94V50.07H1.29A50.67,50.67,0,0,1,32.21,3.43V7H69.89Z"/><path class="cls-37" d="M69.89,50.07V76.16H10v2.17a50.44,50.44,0,0,1-4.66-8.59h1.6V50.07H1.36A50.61,50.61,0,0,1,32.24,3.5V7H69.89Z"/><path class="cls-38" d="M69.89,50.07V76.16H10.05V78.3A50.37,50.37,0,0,1,5.4,69.72H6.94V50.07H1.43A50.54,50.54,0,0,1,32.26,3.56V7H69.89Z"/><path class="cls-39" d="M69.89,50.07V76.16H10.11v2.1A50.3,50.3,0,0,1,5.46,69.7H6.94V50.07H1.5A50.47,50.47,0,0,1,32.29,3.62V7h37.6Z"/><path class="cls-40" d="M69.89,50.07V76.16H10.16v2.06a50.23,50.23,0,0,1-4.64-8.55H6.94V50.07H1.57A50.4,50.4,0,0,1,32.31,3.68V7H69.89Z"/><path class="cls-41" d="M69.89,50.07V76.16H10.22v2a50.16,50.16,0,0,1-4.64-8.54H6.94V50.07H1.63A50.33,50.33,0,0,1,32.34,3.75V7H69.89Z"/><path class="cls-42" d="M69.89,50.07V76.16H10.28v2a50.1,50.1,0,0,1-4.63-8.53H6.94V50.07H1.7A50.27,50.27,0,0,1,32.37,3.81V7H69.89Z"/><path class="cls-43" d="M69.89,50.07V76.16H10.33v1.95a50,50,0,0,1-4.62-8.52H6.94V50.07H1.77A50.2,50.2,0,0,1,32.39,3.87V7H69.89Z"/><path class="cls-44" d="M69.89,50.07V76.16H10.39v1.91a50,50,0,0,1-4.62-8.51H6.94V50.07H1.84A50.07,50.07,0,0,1,51.91,0V7h18Z"/><path class="cls-45" d="M69.89,50.07V76.16H10.45V78a49.89,49.89,0,0,1-4.61-8.49h1.1V50.07h-5a50,50,0,0,1,50-50V7h18Z"/><path class="cls-46" d="M69.89,50.07V76.16H10.5V78a49.82,49.82,0,0,1-4.6-8.48h1V50.07H2A49.94,49.94,0,0,1,51.91.14V7h18Z"/><path class="cls-47" d="M69.89,50.07V76.16H10.56V78A49.76,49.76,0,0,1,6,69.48h1V50.07H2A49.87,49.87,0,0,1,51.91.2V7h18Z"/><path class="cls-48" d="M69.89,50.07V76.16H10.62v1.76A49.69,49.69,0,0,1,6,69.46h.91V50.07H2.11A49.8,49.8,0,0,1,51.91.27V7h18Z"/><path class="cls-49" d="M69.89,50.07V76.16H10.67v1.72a49.62,49.62,0,0,1-4.59-8.45h.85V50.07H2.18A49.73,49.73,0,0,1,51.91.34V7h18Z"/><path class="cls-50" d="M69.89,50.07V76.16H10.73v1.68A49.55,49.55,0,0,1,6.15,69.4h.79V50.07H2.25A49.66,49.66,0,0,1,51.91.41V7h18Z"/><path class="cls-51" d="M69.89,50.07V76.16H10.79V77.8a49.49,49.49,0,0,1-4.57-8.42h.72V50.07H2.31A49.6,49.6,0,0,1,51.91.48V7h18Z"/><path class="cls-52" d="M69.89,50.07V76.16h-59v1.6a49.42,49.42,0,0,1-4.57-8.41h.66V50.07H2.38A49.53,49.53,0,0,1,51.91.54V7h18Z"/><path class="cls-53" d="M69.89,50.07V76.16h-59v1.57a49.35,49.35,0,0,1-4.56-8.4h.6V50.07H2.45A49.46,49.46,0,0,1,51.91.61V7h18Z"/><path class="cls-54" d="M69.89,50.07V76.16H11v1.53A49.28,49.28,0,0,1,6.4,69.3h.54V50.07H2.52A49.39,49.39,0,0,1,51.91.68V7h18Z"/><path class="cls-55" d="M69.89,50.07V76.16H11v1.49a49.21,49.21,0,0,1-4.55-8.38h.47V50.07H2.59A49.32,49.32,0,0,1,51.91.75V7h18Z"/><path class="cls-56" d="M69.89,50.07V76.16H11.07v1.45a49.15,49.15,0,0,1-4.54-8.37h.41V50.07H2.66A49.26,49.26,0,0,1,51.91.82V7h18Z"/><path class="cls-57" d="M69.89,50.07V76.16H11.12v1.41a49.08,49.08,0,0,1-4.54-8.36h.35V50.07H2.72A49.19,49.19,0,0,1,51.91.89V7h18Z"/><path class="cls-58" d="M69.89,50.07V76.16H11.18v1.38a49,49,0,0,1-4.53-8.34h.28V50.07H2.79A49.12,49.12,0,0,1,51.91,1V7h18Z"/><path class="cls-59" d="M69.89,50.07V76.16H11.24V77.5a48.94,48.94,0,0,1-4.52-8.33h.22V50.07H2.86A49.05,49.05,0,0,1,51.91,1V7h18Z"/><path class="cls-60" d="M69.89,50.07V76.16H11.29v1.3a48.87,48.87,0,0,1-4.52-8.32h.16V50.07h-4a49,49,0,0,1,49-49V7h18Z"/><path class="cls-61" d="M69.89,50.07V76.16H11.35v1.26a48.81,48.81,0,0,1-4.51-8.31h.1v-19H3A48.92,48.92,0,0,1,51.91,1.16V7h18Z"/><path class="cls-62" d="M69.89,50.07V76.16H11.41v1.22a48.74,48.74,0,0,1-4.5-8.3h0v-19H3.06A48.85,48.85,0,0,1,51.91,1.23V7h18Z"/><path class="cls-63" d="M69.89,50.07V76.16H11.46v1.18A48.79,48.79,0,0,1,51.91,1.29V7h18Z"/><path class="cls-64" d="M69.89,50.07V76.16H11.52v1.15A48.72,48.72,0,0,1,51.91,1.36V7h18Z"/><path class="cls-65" d="M69.89,50.07V76.16H11.58v1.11A48.65,48.65,0,0,1,51.91,1.43V7h18Z"/><path class="cls-66" d="M69.89,50.07V76.16H11.63v1.07A48.58,48.58,0,0,1,51.91,1.5V7h18Z"/><path class="cls-67" d="M69.89,50.07V76.16H11.69v1A48.51,48.51,0,0,1,51.91,1.57V7h18Z"/><path class="cls-68" d="M69.89,50.07V76.16H11.74v1A48.45,48.45,0,0,1,51.91,1.63V7h18Z"/><path class="cls-69" d="M69.89,50.07V76.16H11.8v1A48.38,48.38,0,0,1,51.91,1.7V7h18Z"/><path class="cls-70" d="M69.89,50.07V76.16h-58v.92A48.31,48.31,0,0,1,51.91,1.77V7h18Z"/><path class="cls-71" d="M69.89,50.07V76.16h-58V77a48.24,48.24,0,0,1,40-75.2V7h18Z"/><path class="cls-72" d="M69.89,50.07V76.16H12V77A48.17,48.17,0,0,1,51.91,1.91V7h18Z"/><path class="cls-73" d="M69.89,50.07V76.16H12V77A48.11,48.11,0,0,1,51.91,2V7h18Z"/><path class="cls-74" d="M69.89,50.07V76.16H12.08v.77A48,48,0,0,1,51.91,2V7h18Z"/><path class="cls-75" d="M69.89,50.07V76.16H12.14v.73A48,48,0,0,1,51.91,2.11V7h18Z"/><path class="cls-76" d="M69.89,50.07V76.16H12.2v.69A47.9,47.9,0,0,1,51.91,2.18V7h18Z"/><path class="cls-77" d="M69.89,50.07V76.16H12.25v.65A47.83,47.83,0,0,1,51.91,2.25V7h18Z"/><path class="cls-78" d="M69.89,50.07V76.16H12.31v.61A47.76,47.76,0,0,1,51.91,2.31V7h18Z"/><path class="cls-79" d="M69.89,50.07V76.16H12.37v.58A47.7,47.7,0,0,1,51.91,2.38V7h18Z"/><path class="cls-80" d="M69.89,50.07V76.16H12.42v.54A47.63,47.63,0,0,1,51.91,2.45V7h18Z"/><path class="cls-81" d="M69.89,50.07V76.16H12.48v.5A47.56,47.56,0,0,1,51.91,2.52V7h18Z"/><path class="cls-82" d="M69.89,50.07V76.16H12.54v.46a47.49,47.49,0,0,1,39.38-74V7h18Z"/><path class="cls-83" d="M69.89,50.07V76.16H12.59v.42A47.42,47.42,0,0,1,51.91,2.66V7h18Z"/><path class="cls-84" d="M69.89,50.07V76.16H12.65v.39A47.36,47.36,0,0,1,51.91,2.72V7h18Z"/><path class="cls-85" d="M69.89,50.07V76.16H12.7v.35A47.29,47.29,0,0,1,51.91,2.79V7h18Z"/><path class="cls-86" d="M69.89,50.07V76.16H12.76v.31A47.22,47.22,0,0,1,51.91,2.86V7h18Z"/><path class="cls-87" d="M69.89,50.07V76.16H12.82v.27A47.15,47.15,0,0,1,51.91,2.93V7h18Z"/><path class="cls-88" d="M69.89,50.07V76.16h-57v.23A47.08,47.08,0,0,1,51.91,3V7h18Z"/><path class="cls-89" d="M69.89,50.07V76.16h-57v.2a47,47,0,0,1,39-73.29V7h18Z"/><path class="cls-90" d="M69.89,50.07V76.16H13v.16A46.95,46.95,0,0,1,51.91,3.13V7h18Z"/><path class="cls-91" d="M69.89,50.07V76.16H13v.12A46.88,46.88,0,0,1,51.91,3.2V7h18Z"/><path class="cls-92" d="M69.89,50.07V76.16H13.1v.08a46.81,46.81,0,0,1,38.81-73V7h18Z"/><path class="cls-93" d="M69.89,50.07V76.16h-51v7A46.75,46.75,0,0,1,70.1,7h-.22Z"/><path class="cls-94" d="M69.89,50.07V76.16h-51v6.91a46.68,46.68,0,0,1,51.17-76h-.19Z"/><path class="cls-95" d="M69.89,50.07V76.16H19V83A46.61,46.61,0,0,1,70.05,7.13h-.16Z"/><path class="cls-96" d="M69.89,50.07V76.16H19V83A46.54,46.54,0,0,1,70,7.2h-.14Z"/><path class="cls-97" d="M69.89,50.07V76.16H19.06v6.77A46.48,46.48,0,0,1,70,7.26h-.11Z"/><path class="cls-98" d="M69.89,50.07V76.16H19.1v6.72A46.41,46.41,0,0,1,70,7.32h-.08Z"/><path class="cls-99" d="M69.89,50.07V76.16H19.15v6.67A46.34,46.34,0,0,1,69.94,7.39h-.06Z"/><path class="cls-100" d="M69.89,50.07V76.16H19.2v6.62A46.27,46.27,0,0,1,69.92,7.45h0Z"/><path class="cls-101" d="M69.89,50.07V76.16H19.25v6.57A46.2,46.2,0,0,1,69.89,7.51h0Z"/><path class="cls-102" d="M69.89,50.07V76.16H19.3v6.53A46.14,46.14,0,0,1,69.86,7.57q2.07.88,4,1.94h-4Z"/><path class="cls-103" d="M69.89,50.07V76.16H19.34v6.48a46.07,46.07,0,0,1,50.49-75q2.07.87,4,1.94h-4Z"/><path class="cls-104" d="M69.89,50.07V76.16H19.39v6.43A46,46,0,0,1,69.81,7.7q2.06.87,4,1.94H69.89Z"/><path class="cls-105" d="M69.89,50.07V76.16H19.44v6.38A45.93,45.93,0,0,1,69.79,7.76q2.06.87,4,1.93H69.89Z"/><path class="cls-106" d="M69.89,50.07V76.16H19.49V82.5A45.86,45.86,0,0,1,69.76,7.82q2.06.87,4,1.93H69.89Z"/><path class="cls-107" d="M69.89,50.07V76.16H19.54v6.29A45.8,45.8,0,0,1,69.73,7.89q2.05.87,4,1.93H69.89Z"/><path class="cls-108" d="M69.89,50.07V76.16H19.59V82.4A45.73,45.73,0,0,1,69.71,7.95q2.05.87,4,1.93H69.89Z"/><path class="cls-109" d="M69.89,50.07V76.16H19.63v6.19A45.66,45.66,0,0,1,69.68,8q2,.87,4,1.92H69.89Z"/><path class="cls-110" d="M69.89,50.07V76.16H19.68V82.3a45.59,45.59,0,0,1,50-74.23q2,.86,4,1.92H69.89Z"/><path class="cls-111" d="M69.89,50.07V76.16H19.73v6.09A45.52,45.52,0,0,1,69.63,8.14q2,.86,4,1.92H69.89Z"/><path class="cls-112" d="M69.89,50.07V76.16H19.78v6A45.46,45.46,0,0,1,69.6,8.2q2,.86,4,1.91H69.89Z"/><path class="cls-113" d="M69.89,50.07V76.16H19.83v6A45.39,45.39,0,0,1,69.57,8.26q2,.86,4,1.91H69.89Z"/><path class="cls-114" d="M69.89,50.07V76.16h-50v5.95A45.32,45.32,0,0,1,69.55,8.33q2,.86,4,1.91H69.89Z"/><path class="cls-115" d="M69.89,50.07V76.16h-50v5.9A45.25,45.25,0,0,1,69.52,8.39q2,.86,4,1.91H69.89Z"/><path class="cls-116" d="M69.89,50.07V76.16H20V82A45.18,45.18,0,0,1,69.49,8.45q2,.86,3.95,1.9H69.89Z"/><path class="cls-117" d="M69.89,50.07V76.16H20V82A45.11,45.11,0,0,1,69.47,8.51q2,.86,3.94,1.9H69.89Z"/><path class="cls-118" d="M69.89,50.07V76.16H20.07v5.76A45,45,0,0,1,69.44,8.58q2,.85,3.94,1.9H69.89Z"/><path class="cls-119" d="M69.89,50.07V76.16H20.11v5.71A45,45,0,0,1,69.41,8.64q2,.85,3.93,1.89H69.89Z"/><path class="cls-120" d="M69.89,50.07V76.16H20.16v5.66A44.91,44.91,0,0,1,69.39,8.7q2,.85,3.92,1.89H69.89Z"/><path class="cls-121" d="M69.89,50.07V76.16H20.21v5.61a44.84,44.84,0,0,1,49.15-73q2,.85,3.92,1.89H69.89Z"/><path class="cls-122" d="M69.89,50.07V76.16H20.26v5.56A44.77,44.77,0,0,1,69.33,8.83q2,.85,3.91,1.88H69.89Z"/><path class="cls-123" d="M69.89,50.07V76.16H20.31v5.52a44.71,44.71,0,0,1,49-72.79q2,.85,3.91,1.88H69.89Z"/><path class="cls-124" d="M69.89,50.07V76.16H20.36v5.47A44.63,44.63,0,0,1,76.86,13.07h-7Z"/><path class="cls-125" d="M69.89,50.07V76.16H20.4v5.42A44.56,44.56,0,0,1,76.82,13.12H69.89Z"/><path class="cls-126" d="M69.89,50.07V76.16H20.45v5.37A44.49,44.49,0,0,1,76.79,13.18h-6.9Z"/><path class="cls-127" d="M69.89,50.07V76.16H20.5v5.32A44.42,44.42,0,0,1,76.75,13.24H69.89Z"/><path class="cls-128" d="M69.89,50.07V76.16H20.55v5.28A44.35,44.35,0,0,1,76.71,13.29H69.89Z"/><path class="cls-129" d="M69.89,50.07V76.16H20.6v5.23a44.28,44.28,0,0,1,56.08-68H69.89Z"/><path class="cls-130" d="M69.89,50.07V76.16H20.64v5.18a44.22,44.22,0,0,1,56-67.93H69.89Z"/><path class="cls-131" d="M69.89,50.07V76.16H20.69v5.13A44.15,44.15,0,0,1,76.6,13.46H69.89Z"/><path class="cls-132" d="M69.89,50.07V76.16H20.74v5.08A44.08,44.08,0,0,1,76.56,13.52H69.89Z"/><path class="cls-133" d="M69.89,50.07V76.16H20.79v5A44,44,0,0,1,76.52,13.58H69.89Z"/><path class="cls-134" d="M69.89,50.07V76.16h-49v5A43.94,43.94,0,0,1,76.48,13.63h-6.6Z"/><path class="cls-135" d="M69.89,50.07V76.16h-49V81.1A43.88,43.88,0,0,1,76.44,13.69H69.89Z"/><path class="cls-136" d="M69.89,50.07V76.16h-49v4.89A43.81,43.81,0,0,1,76.41,13.75H69.89Z"/><path class="cls-137" d="M69.89,50.07V76.16H21V81A43.74,43.74,0,0,1,76.37,13.8H69.89Z"/><path class="cls-138" d="M69.89,50.07V76.16H21V81a43.67,43.67,0,0,1,55.3-67.1H69.89Z"/><path class="cls-139" d="M69.89,50.07V76.16H21.08v4.75a43.6,43.6,0,0,1,55.21-67H69.89Z"/><path class="cls-140" d="M69.89,50.07V76.16H21.13v4.7A43.54,43.54,0,0,1,76.25,14H69.89Z"/><path class="cls-141" d="M69.89,50.07V76.16H21.17v4.65A43.47,43.47,0,0,1,76.22,14H69.89Z"/><path class="cls-142" d="M69.89,50.07V76.16H21.22v4.6a43.4,43.4,0,0,1,55-66.68H69.89Z"/><path class="cls-143" d="M69.89,50.07V76.16H21.27v4.55A43.33,43.33,0,0,1,76.14,14.14H69.89Z"/><path class="cls-144" d="M69.89,50.07V76.16H21.32v4.5A43.26,43.26,0,0,1,76.1,14.2H69.89Z"/><path class="cls-145" d="M69.89,50.07V76.16H21.37v4.46a43.2,43.2,0,0,1,54.7-66.36H69.89Z"/><path class="cls-146" d="M69.89,50.07V76.16H21.41v4.41A43.13,43.13,0,0,1,76,14.31H69.89Z"/><path class="cls-147" d="M69.89,50.07V76.16H21.46v4.36A43.06,43.06,0,0,1,76,14.37h-6.1Z"/><path class="cls-148" d="M69.89,50.07V76.16H21.51v4.31A43,43,0,0,1,75.95,14.42H69.89Z"/><path class="cls-149" d="M69.89,50.07V76.16H21.56v4.26A42.92,42.92,0,0,1,75.91,14.48h-6Z"/><path class="cls-150" d="M69.89,50.07V76.16H21.61v4.22A42.86,42.86,0,0,1,75.87,14.54h-6Z"/><path class="cls-151" d="M69.89,50.07V76.16H21.66v4.17A42.79,42.79,0,0,1,75.83,14.59H69.89Z"/><path class="cls-152" d="M69.89,50.07V76.16H21.7v4.12A42.72,42.72,0,0,1,75.8,14.65H69.89Z"/><path class="cls-153" d="M69.89,50.07V76.16H21.75v4.07a42.65,42.65,0,0,1,54-65.53H69.89Z"/><path class="cls-154" d="M69.89,50.07V76.16H21.8v4A42.58,42.58,0,0,1,75.72,14.76H69.89Z"/><path class="cls-155" d="M69.89,50.07V76.16h-48v4A42.51,42.51,0,0,1,75.68,14.82h-5.8Z"/><path class="cls-156" d="M69.89,50.07V76.16h-48v3.93A42.45,42.45,0,0,1,75.64,14.87H69.89Z"/><path class="cls-157" d="M69.89,50.07V76.16H21.94V80A42.38,42.38,0,0,1,75.61,14.93H69.89Z"/><path class="cls-158" d="M69.89,50.07V76.16H22V80A42.31,42.31,0,0,1,75.57,15H69.89Z"/><path class="cls-159" d="M69.89,50.07V76.16H22v3.78A42.24,42.24,0,0,1,75.53,15H69.89Z"/><path class="cls-160" d="M69.89,50.07V76.16H22.09V79.9a42.17,42.17,0,0,1,53.4-64.8H69.89Z"/><path class="cls-161" d="M69.89,50.07V76.16H22.14v3.69A42.11,42.11,0,0,1,75.45,15.16H69.89Z"/><path class="cls-162" d="M69.89,50.07V76.16H22.18V79.8A42,42,0,0,1,75.42,15.21H69.89Z"/><path class="cls-163" d="M69.89,50.07V76.16H22.23v3.59A42,42,0,0,1,75.38,15.27H69.89Z"/><path class="cls-164" d="M69.89,50.07V76.16H22.28V79.7A41.9,41.9,0,0,1,75.34,15.33H69.89Z"/><path class="cls-165" d="M69.89,50.07V76.16H22.33v3.49a41.83,41.83,0,0,1,53-64.27H69.89Z"/><path class="cls-166" d="M69.89,50.07V76.16H22.38v3.45A41.77,41.77,0,0,1,75.26,15.44H69.89Z"/><path class="cls-167" d="M69.89,50.07V76.16H22.43v3.4A41.7,41.7,0,0,1,75.23,15.5H69.89Z"/><path class="cls-168" d="M69.89,50.07V76.16H22.47v3.35a41.63,41.63,0,0,1,52.71-64h-5.3Z"/><path class="cls-169" d="M69.89,50.07V76.16H22.52v3.3A41.56,41.56,0,0,1,75.15,15.61H69.89Z"/><path class="cls-170" d="M69.89,50.07V76.16H22.57v3.25A41.49,41.49,0,0,1,75.11,15.66H69.89Z"/><path class="cls-171" d="M69.89,50.07V76.16H22.62v3.2A41.43,41.43,0,0,1,75.07,15.72H69.89Z"/><path class="cls-172" d="M69.89,50.07V76.16H22.67v3.16A41.36,41.36,0,0,1,75,15.78H69.89Z"/><path class="cls-173" d="M69.89,50.07V76.16H22.71v3.11A41.29,41.29,0,0,1,75,15.83H69.89Z"/><path class="cls-174" d="M69.89,50.07V76.16H22.76v3.06A41.22,41.22,0,0,1,75,15.89H69.89Z"/><path class="cls-175" d="M69.89,50.07V76.16H22.81v3A41.15,41.15,0,0,1,74.92,15.95h-5Z"/><path class="cls-176" d="M69.89,50.07V76.16h-47v3A41.09,41.09,0,0,1,74.88,16h-5Z"/><path class="cls-177" d="M69.89,50.07V76.16h-47v2.92a41,41,0,0,1,51.94-63h-5Z"/><path class="cls-178" d="M69.89,50.07V76.16H23V79A40.95,40.95,0,0,1,74.81,16.12H69.89Z"/><path class="cls-179" d="M69.89,50.07V76.16H23V79A40.88,40.88,0,0,1,74.77,16.17H69.89Z"/><path class="cls-180" d="M69.89,50.07V76.16H23.05v2.77a40.81,40.81,0,0,1,51.68-62.7H69.89Z"/><path class="cls-181" d="M69.89,50.07V76.16H23.1v2.72a40.74,40.74,0,0,1,51.59-62.6H69.89Z"/><path class="cls-182" d="M69.89,50.07V76.16H23.15v2.68A40.68,40.68,0,0,1,74.65,16.34H69.89Z"/><path class="cls-183" d="M69.89,50.07V76.16H23.2v2.63A40.61,40.61,0,0,1,74.62,16.4H69.89Z"/><path class="cls-184" d="M69.89,50.07V76.16H23.24v2.58A40.54,40.54,0,0,1,74.58,16.46H69.89Z"/><path class="cls-185" d="M69.89,50.07V76.16H23.29v2.53A40.47,40.47,0,0,1,74.54,16.51H69.89Z"/><path class="cls-186" d="M69.89,50.07V76.16H23.34v2.48A40.4,40.4,0,0,1,74.5,16.57H69.89Z"/><path class="cls-187" d="M69.89,50.07V76.16H23.39V78.6a40.34,40.34,0,0,1,51.08-62H69.89Z"/><path class="cls-188" d="M69.89,50.07V76.16H23.44v2.39a40.27,40.27,0,0,1,51-61.87H69.89Z"/><path class="cls-189" d="M69.89,50.07V76.16H23.48V78.5a40.2,40.2,0,0,1,50.9-61.76h-4.5Z"/><path class="cls-190" d="M69.89,50.07V76.16H23.53v2.29A40.13,40.13,0,0,1,74.35,16.79H69.89Z"/><path class="cls-191" d="M69.89,50.07V76.16H23.58V78.4A40.06,40.06,0,0,1,74.31,16.85H69.89Z"/><path class="cls-192" d="M69.89,50.07V76.16H23.63v2.19A40,40,0,0,1,74.27,16.91H69.89Z"/><path class="cls-193" d="M69.89,50.07V76.16H23.68v2.15A39.93,39.93,0,0,1,74.24,17H69.89Z"/><path class="cls-194" d="M69.89,50.07V76.16H23.73v2.1A39.86,39.86,0,0,1,74.2,17H69.89Z"/><path class="cls-195" d="M69.89,50.07V76.16H23.77v2A39.79,39.79,0,0,1,74.16,17.08H69.89Z"/><path class="cls-196" d="M69.89,50.07V76.16H23.82v2a39.72,39.72,0,0,1,50.3-61H69.89Z"/><path class="cls-197" d="M69.89,50.07V76.16h-46v2A39.66,39.66,0,0,1,74.08,17.19h-4.2Z"/><path class="cls-198" d="M69.89,50.07V76.16h-46v1.91A39.59,39.59,0,0,1,74,17.25H69.89Z"/><path class="cls-199" d="M69.89,50.07V76.16H24V78A39.52,39.52,0,0,1,74,17.3H69.89Z"/><path class="cls-200" d="M69.89,50.07V76.16H24V78A39.45,39.45,0,0,1,74,17.36H69.89Z"/><path class="cls-201" d="M69.89,50.07V76.16H24.06v1.76A39.38,39.38,0,0,1,73.93,17.41h-4Z"/><path class="cls-202" d="M69.89,50.07V76.16H24.11v1.71a39.32,39.32,0,0,1,49.78-60.4h-4Z"/><path class="cls-203" d="M69.89,50.07V76.16H24.16v1.66a39.25,39.25,0,0,1,49.7-60.3h-4Z"/><path class="cls-204" d="M69.89,50.07V76.16H24.21v1.62A39.18,39.18,0,0,1,73.82,17.58H69.89Z"/><path class="cls-205" d="M69.89,50.07V76.16H24.25v1.57A39.11,39.11,0,0,1,73.78,17.64H69.89Z"/><path class="cls-206" d="M69.89,50.07V76.16H24.3v1.52a39,39,0,0,1,49.44-60H69.89Z"/><path class="cls-207" d="M69.89,50.07V76.16H24.35v1.47A39,39,0,0,1,73.7,17.75H69.89Z"/><path class="cls-208" d="M69.89,50.07V76.16H24.4v1.42A38.91,38.91,0,0,1,73.66,17.81H69.89Z"/><path class="cls-209" d="M69.89,50.07V76.16H24.45v1.38A38.84,38.84,0,0,1,73.63,17.87H69.89Z"/><path class="cls-210" d="M69.89,50.07V76.16H24.5v1.33A38.77,38.77,0,0,1,73.59,17.92h-3.7Z"/><path class="cls-211" d="M69.89,50.07V76.16H24.54v1.28A38.7,38.7,0,0,1,73.55,18H69.89Z"/><path class="cls-212" d="M69.89,50.07V76.16H24.59v1.23A38.63,38.63,0,0,1,73.51,18H69.89Z"/><path class="cls-213" d="M69.89,50.07V76.16H24.64v1.18A38.57,38.57,0,0,1,73.47,18.09H69.89Z"/><path class="cls-214" d="M69.89,50.07V76.16H24.69V77.3A38.5,38.5,0,0,1,73.44,18.15H69.89Z"/><path class="cls-215" d="M69.89,50.07V76.16H24.74v1.09a38.43,38.43,0,0,1,48.66-59H69.89Z"/><path class="cls-216" d="M69.89,50.07V76.16H24.78v1A38.36,38.36,0,0,1,73.36,18.26H69.89Z"/><path class="cls-217" d="M69.89,50.07V76.16H24.83v1A38.29,38.29,0,0,1,73.32,18.32H69.89Z"/><path class="cls-218" d="M69.89,50.07V76.16h-45v.94a38.23,38.23,0,0,1,48.4-58.73h-3.4Z"/><path class="cls-219" d="M69.89,50.07V76.16h-45v.89A38.16,38.16,0,0,1,73.25,18.43H69.89Z"/><path class="cls-220" d="M69.89,50.07V76.16H25V77A38.09,38.09,0,0,1,73.21,18.49H69.89Z"/><path class="cls-221" d="M69.89,50.07V76.16H25V77A38,38,0,0,1,73.17,18.54H69.89Z"/><path class="cls-222" d="M69.89,50.07V76.16H25.07v.75A38,38,0,0,1,73.13,18.6H69.89Z"/><path class="cls-223" d="M69.89,50.07V76.16H25.12v.7a37.89,37.89,0,0,1,48-58.21H69.89Z"/><path class="cls-224" d="M69.89,50.07V76.16H25.17v.65a37.82,37.82,0,0,1,47.89-58.1H69.89Z"/><path class="cls-225" d="M69.89,50.07V76.16H25.22v.61a37.75,37.75,0,0,1,47.8-58H69.89Z"/><path class="cls-226" d="M69.89,50.07V76.16H25.27v.56A37.68,37.68,0,0,1,73,18.83H69.89Z"/><path class="cls-227" d="M69.89,50.07V76.16H25.31v.51A37.61,37.61,0,0,1,72.94,18.88H69.89Z"/><path class="cls-228" d="M69.89,50.07V76.16H25.36v.46A37.55,37.55,0,0,1,72.9,18.94h-3Z"/></g></g></g></svg>
